<svg xmlns="http://www.w3.org/2000/svg" viewBox="0 0 32 32" id="Thread--Streamline-Twemoji" height="32" width="32">
  <desc>
    Thread Streamline Emoji: https://streamlinehq.com
  </desc>
  <path fill="#553788" d="M31.11111111111111 32c-0.3724444444444444 0 -0.7191111111111111 -0.23555555555555555 -0.8426666666666666 -0.608C29.678222222222217 29.62311111111111 28.084444444444443 28.444444444444443 22.22222222222222 28.444444444444443c-0.4915555555555556 0 -0.8888888888888888 -0.3973333333333333 -0.8888888888888888 -0.8888888888888888s0.3973333333333333 -0.8888888888888888 0.8888888888888888 -0.8888888888888888c5.0088888888888885 0 8.580444444444444 0.7084444444444444 9.731555555555556 4.163555555555556 0.15555555555555553 0.4657777777777778 -0.09599999999999999 0.9697777777777777 -0.5617777777777777 1.1244444444444444 -0.09333333333333332 0.030222222222222223 -0.18844444444444444 0.04533333333333333 -0.28088888888888885 0.04533333333333333z" stroke-width="0.8889"></path>
  <path fill="#553788" d="M2.6666666666666665 2.6666666666666665h19.555555555555554v26.666666666666664H2.6666666666666665z" stroke-width="0.8889"></path>
  <path fill="#c1694f" d="M23.11111111111111 3.5555555555555554H1.7777777777777777c-0.48888888888888893 0 -1.7777777777777777 -2.6666666666666665 -1.7777777777777777 -2.6666666666666665 0 -0.48888888888888893 0.39999999999999997 -0.8888888888888888 0.8888888888888888 -0.8888888888888888h23.11111111111111c0.48888888888888893 0 0.8888888888888888 0.39999999999999997 0.8888888888888888 0.8888888888888888 0 0 -1.2888888888888888 2.6666666666666665 -1.7777777777777777 2.6666666666666665zm0 24.888888888888886H1.7777777777777777c-0.48888888888888893 0 -1.7777777777777777 2.6666666666666665 -1.7777777777777777 2.6666666666666665 0 0.48888888888888893 0.39999999999999997 0.8888888888888888 0.8888888888888888 0.8888888888888888h23.11111111111111c0.48888888888888893 0 0.8888888888888888 -0.39999999999999997 0.8888888888888888 -0.8888888888888888 0 0 -1.2888888888888888 -2.6666666666666665 -1.7777777777777777 -2.6666666666666665z" stroke-width="0.8889"></path>
  <path fill="#744eaa" d="M20.444444444444443 6.222222222222221H4.444444444444445c-0.48888888888888893 0 -0.8888888888888888 -0.39999999999999997 -0.8888888888888888 -0.8888888888888888s0.39999999999999997 -0.8888888888888888 0.8888888888888888 -0.8888888888888888h16c0.48888888888888893 0 0.8888888888888888 0.39999999999999997 0.8888888888888888 0.8888888888888888s-0.39999999999999997 0.8888888888888888 -0.8888888888888888 0.8888888888888888zm0 3.5555555555555554H4.444444444444445c-0.48888888888888893 0 -0.8888888888888888 -0.39999999999999997 -0.8888888888888888 -0.8888888888888888s0.39999999999999997 -0.8888888888888888 0.8888888888888888 -0.8888888888888888h16c0.48888888888888893 0 0.8888888888888888 0.39999999999999997 0.8888888888888888 0.8888888888888888s-0.39999999999999997 0.8888888888888888 -0.8888888888888888 0.8888888888888888zm0 3.5555555555555554H4.444444444444445c-0.48888888888888893 0 -0.8888888888888888 -0.39999999999999997 -0.8888888888888888 -0.8888888888888888s0.39999999999999997 -0.8888888888888888 0.8888888888888888 -0.8888888888888888h16c0.48888888888888893 0 0.8888888888888888 0.39999999999999997 0.8888888888888888 0.8888888888888888s-0.39999999999999997 0.8888888888888888 -0.8888888888888888 0.8888888888888888zm0 3.5555555555555554H4.444444444444445c-0.48888888888888893 0 -0.8888888888888888 -0.39999999999999997 -0.8888888888888888 -0.8888888888888888s0.39999999999999997 -0.8888888888888888 0.8888888888888888 -0.8888888888888888h16c0.48888888888888893 0 0.8888888888888888 0.39999999999999997 0.8888888888888888 0.8888888888888888s-0.39999999999999997 0.8888888888888888 -0.8888888888888888 0.8888888888888888zm0 3.5555555555555554H4.444444444444445c-0.48888888888888893 0 -0.8888888888888888 -0.39999999999999997 -0.8888888888888888 -0.8888888888888888s0.39999999999999997 -0.8888888888888888 0.8888888888888888 -0.8888888888888888h16c0.48888888888888893 0 0.8888888888888888 0.39999999999999997 0.8888888888888888 0.8888888888888888s-0.39999999999999997 0.8888888888888888 -0.8888888888888888 0.8888888888888888zm0 3.5555555555555554H4.444444444444445c-0.48888888888888893 0 -0.8888888888888888 -0.39999999999999997 -0.8888888888888888 -0.8888888888888888s0.39999999999999997 -0.8888888888888888 0.8888888888888888 -0.8888888888888888h16c0.48888888888888893 0 0.8888888888888888 0.39999999999999997 0.8888888888888888 0.8888888888888888s-0.39999999999999997 0.8888888888888888 -0.8888888888888888 0.8888888888888888zm0 3.5555555555555554H4.444444444444445c-0.48888888888888893 0 -0.8888888888888888 -0.39999999999999997 -0.8888888888888888 -0.8888888888888888s0.39999999999999997 -0.8888888888888888 0.8888888888888888 -0.8888888888888888h16c0.48888888888888893 0 0.8888888888888888 0.39999999999999997 0.8888888888888888 0.8888888888888888s-0.39999999999999997 0.8888888888888888 -0.8888888888888888 0.8888888888888888z" stroke-width="0.8889"></path>
  <path fill="#9266cc" d="M15.34311111111111 6.222222222222221H6.8791111111111105C6.517333333333333 6.222222222222221 6.222222222222221 5.9271111111111106 6.222222222222221 5.565333333333333v-0.46399999999999997C6.222222222222221 4.7395555555555555 6.517333333333333 4.444444444444445 6.8791111111111105 4.444444444444445h8.464888888888888c0.36088888888888887 0 0.6559999999999999 0.2951111111111111 0.6559999999999999 0.6568888888888889v0.4648888888888889c0 0.36088888888888887 -0.2951111111111111 0.6559999999999999 -0.6568888888888889 0.6559999999999999zm0 3.5555555555555554H6.8791111111111105C6.517333333333333 9.777777777777777 6.222222222222221 9.482666666666665 6.222222222222221 9.120888888888887v-0.46399999999999997C6.222222222222221 8.295111111111112 6.517333333333333 8 6.8791111111111105 8h8.464888888888888c0.36088888888888887 0 0.6559999999999999 0.2951111111111111 0.6559999999999999 0.6568888888888889v0.4648888888888889c0 0.36088888888888887 -0.2951111111111111 0.6559999999999999 -0.6568888888888889 0.6559999999999999zm0 3.5555555555555554H6.8791111111111105C6.517333333333333 13.333333333333332 6.222222222222221 13.03822222222222 6.222222222222221 12.676444444444442v-0.4648888888888889c0 -0.36088888888888887 0.2951111111111111 -0.6559999999999999 0.6568888888888889 -0.6559999999999999h8.464888888888888c0.36088888888888887 0 0.6559999999999999 0.2951111111111111 0.6559999999999999 0.6568888888888889v0.4648888888888889c0 0.36088888888888887 -0.2951111111111111 0.6559999999999999 -0.6568888888888889 0.6559999999999999zm0 3.5555555555555554H6.8791111111111105C6.517333333333333 16.88888888888889 6.222222222222221 16.593777777777778 6.222222222222221 16.232v-0.4648888888888889c0 -0.36088888888888887 0.2951111111111111 -0.6559999999999999 0.6568888888888889 -0.6559999999999999h8.464888888888888c0.36088888888888887 0 0.6559999999999999 0.2951111111111111 0.6559999999999999 0.6568888888888889v0.4648888888888889c0 0.36088888888888887 -0.2951111111111111 0.6559999999999999 -0.6568888888888889 0.6559999999999999zm0 3.5555555555555554H6.8791111111111105C6.517333333333333 20.444444444444443 6.222222222222221 20.14933333333333 6.222222222222221 19.787555555555553v-0.4648888888888889c0 -0.36088888888888887 0.2951111111111111 -0.6559999999999999 0.6568888888888889 -0.6559999999999999h8.464888888888888c0.36088888888888887 0 0.6559999999999999 0.2951111111111111 0.6559999999999999 0.6568888888888889v0.4648888888888889c0 0.36088888888888887 -0.2951111111111111 0.6559999999999999 -0.6568888888888889 0.6559999999999999zm0 3.5555555555555554H6.8791111111111105C6.517333333333333 24 6.222222222222221 23.70488888888889 6.222222222222221 23.34311111111111v-0.4648888888888889c0 -0.36088888888888887 0.2951111111111111 -0.6559999999999999 0.6568888888888889 -0.6559999999999999h8.464888888888888c0.36088888888888887 0 0.6559999999999999 0.2951111111111111 0.6559999999999999 0.6568888888888889v0.4648888888888889c0 0.36088888888888887 -0.2951111111111111 0.6559999999999999 -0.6568888888888889 0.6559999999999999zm0 3.5555555555555554H6.8791111111111105C6.517333333333333 27.555555555555554 6.222222222222221 27.260444444444442 6.222222222222221 26.898666666666664v-0.4648888888888889c0 -0.36088888888888887 0.2951111111111111 -0.6559999999999999 0.6568888888888889 -0.6559999999999999h8.464888888888888c0.36088888888888887 0 0.6559999999999999 0.2951111111111111 0.6559999999999999 0.6568888888888889v0.4648888888888889c0 0.36088888888888887 -0.2951111111111111 0.6559999999999999 -0.6568888888888889 0.6559999999999999z" stroke-width="0.8889"></path>
</svg>